<svg width="48" height="48" viewBox="0 0 48 48" fill="none" xmlns="http://www.w3.org/2000/svg">
<rect x="47.5" y="0.5" width="47" height="47" rx="11.5" transform="rotate(90 47.5 0.5)" fill="#DC362E"/>
<rect x="47.5" y="0.5" width="47" height="47" rx="11.5" transform="rotate(90 47.5 0.5)" stroke="#D9D9D9"/>
<path opacity="0.4" d="M14 23.0785C14.05 25.4165 14.19 29.4155 14.21 29.8565C14.281 30.7995 14.642 31.7525 15.204 32.4245C15.986 33.3675 16.949 33.7885 18.292 33.7885C20.148 33.7985 22.194 33.7985 24.181 33.7985C26.176 33.7985 28.112 33.7985 29.747 33.7885C31.071 33.7885 32.064 33.3565 32.836 32.4245C33.398 31.7525 33.759 30.7895 33.81 29.8565C33.83 29.4855 33.93 25.1445 33.99 23.0785H14Z" fill="white"/>
<path d="M23.2451 27.3842V28.6782C23.2451 29.0922 23.5811 29.4282 23.9951 29.4282C24.4091 29.4282 24.7451 29.0922 24.7451 28.6782V27.3842C24.7451 26.9702 24.4091 26.6342 23.9951 26.6342C23.5811 26.6342 23.2451 26.9702 23.2451 27.3842Z" fill="white"/>
<path fill-rule="evenodd" clip-rule="evenodd" d="M22.211 26.5564C22.111 26.9194 21.762 27.1514 21.384 27.1014C18.833 26.7454 16.395 25.8404 14.337 24.4814C14.126 24.3434 14 24.1074 14 23.8554V20.3894C14 18.2894 15.712 16.5814 17.817 16.5814H19.784C19.972 15.1294 21.202 14.0004 22.704 14.0004H25.286C26.787 14.0004 28.018 15.1294 28.206 16.5814H30.183C32.282 16.5814 33.99 18.2894 33.99 20.3894V23.8554C33.99 24.1074 33.863 24.3424 33.654 24.4814C31.592 25.8464 29.144 26.7554 26.576 27.1104C26.541 27.1154 26.507 27.1174 26.473 27.1174C26.134 27.1174 25.831 26.8884 25.746 26.5524C25.544 25.7564 24.821 25.1994 23.99 25.1994C23.148 25.1994 22.433 25.7444 22.211 26.5564ZM25.286 15.5004H22.704C22.031 15.5004 21.469 15.9604 21.301 16.5814H26.688C26.52 15.9604 25.958 15.5004 25.286 15.5004Z" fill="white"/>
</svg>
