<svg width="64" height="64" viewBox="0 0 64 64" fill="none" xmlns="http://www.w3.org/2000/svg">
<rect width="64" height="64" rx="16" fill="#FBEBEA"/>
<path opacity="0.4" d="M42.9663 28.771C42.9663 28.866 42.2213 38.2892 41.7957 42.255C41.5293 44.6888 39.9603 46.165 37.6069 46.2069C35.7987 46.2474 34.0285 46.2614 32.2869 46.2614C30.4379 46.2614 28.6296 46.2474 26.8744 46.2069C24.5999 46.1524 23.0295 44.6468 22.7767 42.255C22.3389 38.2752 21.6074 28.866 21.5938 28.771C21.5802 28.4844 21.6727 28.2118 21.8603 27.9909C22.0452 27.7868 22.3117 27.6638 22.5918 27.6638H41.982C42.2607 27.6638 42.5136 27.7868 42.7135 27.9909C42.8997 28.2118 42.9935 28.4844 42.9663 28.771Z" fill="#DC362E"/>
<path d="M44.8629 23.8619C44.8629 23.2874 44.4102 22.8373 43.8664 22.8373H39.7904C38.961 22.8373 38.2405 22.2474 38.0556 21.4156L37.8272 20.3965C37.5077 19.165 36.405 18.3025 35.1678 18.3025H29.3964C28.1456 18.3025 27.0539 19.165 26.7222 20.4636L26.5087 21.417C26.3224 22.2474 25.6019 22.8373 24.7739 22.8373H20.6979C20.1527 22.8373 19.7 23.2874 19.7 23.8619V24.3931C19.7 24.9537 20.1527 25.4178 20.6979 25.4178H43.8664C44.4102 25.4178 44.8629 24.9537 44.8629 24.3931V23.8619Z" fill="#DC362E"/>
</svg>
