<svg width="48" height="48" viewBox="0 0 48 48" fill="none" xmlns="http://www.w3.org/2000/svg">
<rect x="47.5" y="0.5" width="47" height="47" rx="11.5" transform="rotate(90 47.5 0.5)" fill="white"/>
<rect x="47.5" y="0.5" width="47" height="47" rx="11.5" transform="rotate(90 47.5 0.5)" stroke="#E9E9E9"/>
<path d="M23.9488 26.5399C20.4988 26.5399 17.5879 27.1037 17.5879 29.2794C17.5879 31.4561 20.5176 32 23.9488 32C27.3988 32 30.3098 31.4362 30.3098 29.2605C30.3098 27.0839 27.38 26.5399 23.9488 26.5399Z" fill="#DC362E"/>
<path opacity="0.4" d="M23.949 24.467C26.2851 24.467 28.1583 22.5831 28.1583 20.2335C28.1583 17.8831 26.2851 16 23.949 16C21.6129 16 19.7397 17.8831 19.7397 20.2335C19.7397 22.5831 21.6129 24.467 23.949 24.467Z" fill="#DC362E"/>
<path opacity="0.4" d="M33.0881 21.2192C33.6925 18.8418 31.9205 16.7065 29.664 16.7065C29.4187 16.7065 29.1841 16.7336 28.9549 16.7795C28.9244 16.7867 28.8904 16.802 28.8725 16.829C28.8519 16.8632 28.8671 16.9092 28.8895 16.9389C29.5673 17.8953 29.9568 19.0597 29.9568 20.3097C29.9568 21.5074 29.5996 22.6241 28.9728 23.5508C28.9083 23.6462 28.9656 23.775 29.0793 23.7948C29.2369 23.8227 29.3981 23.8371 29.5629 23.8416C31.2059 23.8849 32.6807 22.8213 33.0881 21.2192Z" fill="#DC362E"/>
<path d="M34.8094 26.817C34.5086 26.1722 33.7824 25.73 32.6783 25.513C32.1572 25.3851 30.747 25.205 29.4352 25.2293C29.4155 25.232 29.4048 25.2455 29.403 25.2545C29.4003 25.2671 29.4057 25.2887 29.4316 25.3022C30.0378 25.6039 32.3811 26.916 32.0865 29.6834C32.074 29.8032 32.1698 29.9068 32.2888 29.8888C32.8655 29.8059 34.3492 29.4853 34.8094 28.4866C35.0637 27.9589 35.0637 27.3456 34.8094 26.817Z" fill="#DC362E"/>
<path opacity="0.4" d="M19.0446 16.7797C18.8163 16.7329 18.5808 16.7068 18.3354 16.7068C16.079 16.7068 14.307 18.842 14.9123 21.2195C15.3188 22.8216 16.7935 23.8851 18.4366 23.8419C18.6014 23.8374 18.7634 23.8221 18.9201 23.7951C19.0338 23.7753 19.0911 23.6465 19.0267 23.551C18.3999 22.6234 18.0426 21.5077 18.0426 20.3099C18.0426 19.059 18.433 17.8946 19.1108 16.9391C19.1323 16.9094 19.1485 16.8635 19.127 16.8293C19.1091 16.8013 19.0759 16.7869 19.0446 16.7797Z" fill="#DC362E"/>
<path d="M15.3216 25.5127C14.2175 25.7297 13.4922 26.1719 13.1914 26.8167C12.9362 27.3453 12.9362 27.9586 13.1914 28.4872C13.6516 29.4851 15.1353 29.8066 15.712 29.8885C15.831 29.9065 15.926 29.8038 15.9134 29.6832C15.6188 26.9167 17.9621 25.6046 18.5692 25.3029C18.5943 25.2885 18.5996 25.2677 18.5969 25.2542C18.5951 25.2452 18.5853 25.2317 18.5656 25.2299C17.2529 25.2047 15.8436 25.3848 15.3216 25.5127Z" fill="#DC362E"/>
</svg>
