<svg width="64" height="64" viewBox="0 0 64 64" fill="none" xmlns="http://www.w3.org/2000/svg">
<rect width="64" height="64" rx="16" fill="#FFC9C7"/>
<path d="M38.5098 17H25.5048C20.4198 17 16.9998 20.57 16.9998 25.88V38.135C16.9998 43.43 20.4198 47 25.5048 47H38.5098C43.5948 47 46.9998 43.43 46.9998 38.135V25.88C46.9998 20.57 43.5948 17 38.5098 17" stroke="#DC362E"/>
<path d="M36.5232 34.6558L33.8547 31.9888L36.5217 29.3218C37.0347 28.8103 37.0347 27.9778 36.5217 27.4663C36.0087 26.9503 35.1792 26.9518 34.6662 27.4648L31.9977 30.1318L29.3292 27.4618C28.8162 26.9488 27.9852 26.9518 27.4722 27.4618C26.9607 27.9748 26.9607 28.8073 27.4722 29.3188L30.1422 31.9888L27.4782 34.6512C26.9652 35.1642 26.9652 35.9967 27.4782 36.5067C27.7347 36.7647 28.0692 36.8922 28.4052 36.8922C28.7427 36.8922 29.0772 36.7647 29.3337 36.5082L31.9977 33.8443L34.6677 36.5128C34.9242 36.7693 35.2587 36.8968 35.5947 36.8968C35.9307 36.8968 36.2667 36.7678 36.5232 36.5128C37.0362 35.9998 37.0362 35.1688 36.5232 34.6558" fill="#DC362E"/>
</svg>
