<svg width="160" height="28" viewBox="0 0 160 28" fill="none" xmlns="http://www.w3.org/2000/svg">
<path d="M107.825 21.7H113.425V25H103.55V7.45H107.825V21.7ZM117.614 9.6C116.864 9.6 116.247 9.38333 115.764 8.95C115.297 8.5 115.064 7.95 115.064 7.3C115.064 6.63333 115.297 6.08333 115.764 5.65C116.247 5.2 116.864 4.975 117.614 4.975C118.347 4.975 118.947 5.2 119.414 5.65C119.897 6.08333 120.139 6.63333 120.139 7.3C120.139 7.95 119.897 8.5 119.414 8.95C118.947 9.38333 118.347 9.6 117.614 9.6ZM119.739 11.05V25H115.464V11.05H119.739ZM130.612 21.375V25H128.437C126.887 25 125.679 24.625 124.812 23.875C123.945 23.1083 123.512 21.8667 123.512 20.15V14.6H121.812V11.05H123.512V7.65H127.787V11.05H130.587V14.6H127.787V20.2C127.787 20.6167 127.887 20.9167 128.087 21.1C128.287 21.2833 128.62 21.375 129.087 21.375H130.612ZM146.143 17.8C146.143 18.2 146.118 18.6167 146.068 19.05H136.393C136.46 19.9167 136.735 20.5833 137.218 21.05C137.718 21.5 138.327 21.725 139.043 21.725C140.11 21.725 140.852 21.275 141.268 20.375H145.818C145.585 21.2917 145.16 22.1167 144.543 22.85C143.943 23.5833 143.185 24.1583 142.268 24.575C141.352 24.9917 140.327 25.2 139.193 25.2C137.827 25.2 136.61 24.9083 135.543 24.325C134.477 23.7417 133.643 22.9083 133.043 21.825C132.443 20.7417 132.143 19.475 132.143 18.025C132.143 16.575 132.435 15.3083 133.018 14.225C133.618 13.1417 134.452 12.3083 135.518 11.725C136.585 11.1417 137.81 10.85 139.193 10.85C140.543 10.85 141.743 11.1333 142.793 11.7C143.843 12.2667 144.66 13.075 145.243 14.125C145.843 15.175 146.143 16.4 146.143 17.8ZM141.768 16.675C141.768 15.9417 141.518 15.3583 141.018 14.925C140.518 14.4917 139.893 14.275 139.143 14.275C138.427 14.275 137.818 14.4833 137.318 14.9C136.835 15.3167 136.535 15.9083 136.418 16.675H141.768Z" fill="#232323"/>
<path d="M21.425 7.45V25H17.15V14.475L13.225 25H9.775L5.825 14.45V25H1.55V7.45H6.6L11.525 19.6L16.4 7.45H21.425ZM35.4242 21.9H28.8742L27.8242 25H23.3492L29.6992 7.45H34.6492L40.9992 25H36.4742L35.4242 21.9ZM34.3242 18.6L32.1492 12.175L29.9992 18.6H34.3242ZM49.5068 7.45C51.3568 7.45 52.9735 7.81667 54.3568 8.55C55.7402 9.28333 56.8068 10.3167 57.5568 11.65C58.3235 12.9667 58.7068 14.4917 58.7068 16.225C58.7068 17.9417 58.3235 19.4667 57.5568 20.8C56.8068 22.1333 55.7318 23.1667 54.3318 23.9C52.9485 24.6333 51.3402 25 49.5068 25H42.9318V7.45H49.5068ZM49.2318 21.3C50.8485 21.3 52.1068 20.8583 53.0068 19.975C53.9068 19.0917 54.3568 17.8417 54.3568 16.225C54.3568 14.6083 53.9068 13.35 53.0068 12.45C52.1068 11.55 50.8485 11.1 49.2318 11.1H47.2068V21.3H49.2318ZM72.0209 21.9H65.4709L64.4209 25H59.9459L66.2959 7.45H71.2459L77.5959 25H73.0709L72.0209 21.9ZM70.9209 18.6L68.7459 12.175L66.5959 18.6H70.9209ZM99.4035 7.45V25H95.1285V14.475L91.2035 25H87.7535L83.8035 14.45V25H79.5285V7.45H84.5785L89.5035 19.6L94.3785 7.45H99.4035Z" fill="#DC362E"/>
<path d="M147.625 14.0625L148.562 9.375L144.812 7.96875L151.375 0.9375L150.438 5.625L154.188 7.03125L147.625 14.0625Z" fill="#232323"/>
</svg>
