<svg width="48" height="48" viewBox="0 0 48 48" fill="none" xmlns="http://www.w3.org/2000/svg">
<rect x="47.5" y="0.5" width="47" height="47" rx="11.5" transform="rotate(90 47.5 0.5)" fill="white"/>
<rect x="47.5" y="0.5" width="47" height="47" rx="11.5" transform="rotate(90 47.5 0.5)" stroke="#E9E9E9"/>
<path d="M26.2627 24C26.5441 23.6849 26.8889 23.4328 27.2745 23.2602C27.6601 23.0876 28.0777 22.9984 28.5002 22.9984C28.9226 22.9984 29.3403 23.0876 29.7259 23.2602C30.1115 23.4328 30.4563 23.6849 30.7377 24" stroke="#DC362E" stroke-width="2" stroke-linecap="round" stroke-linejoin="round"/>
<path d="M17.2627 24C17.5441 23.6849 17.8889 23.4328 18.2745 23.2602C18.6601 23.0876 19.0777 22.9984 19.5002 22.9984C19.9226 22.9984 20.3403 23.0876 20.7259 23.2602C21.1115 23.4328 21.4563 23.6849 21.7377 24" stroke="#DC362E" stroke-width="2" stroke-linecap="round" stroke-linejoin="round"/>
<path d="M27.3125 30C26.3308 30.652 25.1785 30.9998 24 30.9998C22.8215 30.9998 21.6692 30.652 20.6875 30" stroke="#DC362E" stroke-width="2" stroke-linecap="round" stroke-linejoin="round"/>
<path d="M35.0001 14.0375C35.002 13.8744 34.9634 13.7133 34.8879 13.5688C34.8124 13.4242 34.7022 13.3006 34.5673 13.2089C34.4324 13.1173 34.2768 13.0606 34.1146 13.0437C33.9523 13.0269 33.7885 13.0505 33.6376 13.1125C31.7501 13.8375 28.1126 15 24.0001 15C19.8876 15 16.2501 13.8375 14.3626 13.1125C14.2117 13.0505 14.0478 13.0269 13.8856 13.0437C13.7233 13.0606 13.5678 13.1173 13.4328 13.2089C13.2979 13.3006 13.1877 13.4242 13.1122 13.5688C13.0367 13.7133 12.9982 13.8744 13.0001 14.0375V21C13.0001 29.8375 17.9251 37 24.0001 37C30.0751 37 35.0001 29.8375 35.0001 21V14.0375Z" stroke="#DC362E" stroke-width="2" stroke-linecap="round" stroke-linejoin="round"/>
</svg>
