<?xml version="1.0" standalone="no"?>
<!DOCTYPE svg PUBLIC "-//W3C//DTD SVG 20010904//EN"
 "http://www.w3.org/TR/2001/REC-SVG-20010904/DTD/svg10.dtd">
<svg version="1.0" xmlns="http://www.w3.org/2000/svg"
 width="778.000000pt" height="401.000000pt" viewBox="0 0 778.000000 401.000000"
 preserveAspectRatio="xMidYMid meet">

<g transform="translate(0.000000,401.000000) scale(0.100000,-0.100000)"
fill="#000000" stroke="none">
<path d="M630 3520 l0 -490 -315 0 -315 0 0 -1515 0 -1515 3890 0 3890 0 0
1515 0 1515 -315 0 -315 0 0 490 0 490 -3260 0 -3260 0 0 -490z m3610 -350 c9
-18 8 -20 -15 -20 -23 0 -24 2 -15 20 6 11 13 20 15 20 2 0 9 -9 15 -20z
m-2245 -10 c110 -15 185 -32 185 -42 0 -5 -6 -19 -14 -31 -7 -12 -25 -43 -39
-68 l-26 -46 -83 12 c-150 22 -223 7 -271 -57 -26 -35 -25 -92 3 -148 14 -29
89 -110 206 -225 170 -167 186 -186 221 -260 36 -75 38 -86 38 -175 0 -79 -4
-103 -23 -142 -53 -108 -170 -200 -278 -219 -66 -11 -279 -14 -352 -4 -26 4
-71 13 -100 21 -62 17 -62 14 0 117 31 51 45 66 57 61 45 -18 192 -41 241 -38
127 10 206 52 241 129 23 49 24 86 4 153 -14 46 -36 73 -203 244 -234 241
-282 316 -282 437 0 75 14 122 53 173 71 93 232 134 422 108z m3887 -5 c25 -3
72 -14 105 -25 197 -67 296 -181 309 -355 15 -190 -68 -329 -239 -397 -28 -12
-53 -22 -55 -23 -1 -1 55 -105 126 -231 71 -126 146 -259 166 -296 l38 -68
-109 0 -108 0 -22 43 c-232 439 -323 616 -323 626 0 5 15 12 33 16 67 14 173
73 219 123 98 105 94 261 -10 352 -65 58 -147 81 -299 88 l-123 4 0 -626 0
-626 -90 0 -90 0 0 625 0 625 -140 0 c-77 0 -140 2 -140 5 0 8 83 139 91 145
10 7 602 3 661 -5z m-2402 -7 c0 -5 -19 -41 -41 -79 l-41 -69 -179 0 -179 0 0
-620 0 -620 -90 0 -90 0 0 620 0 620 -200 0 c-110 0 -200 2 -200 4 0 2 18 36
41 75 l41 71 456 2 c251 2 463 3 470 4 6 0 12 -3 12 -8z m802 -57 c4 0 12 -10
18 -21 10 -19 8 -20 -75 -20 l-85 0 15 24 c14 21 23 24 68 21 29 -1 55 -3 59
-4z m72 -116 l16 -25 -140 0 c-77 0 -140 3 -140 6 0 3 5 14 10 25 10 17 22 19
124 19 110 0 114 -1 130 -25z m56 -94 c5 -11 10 -22 10 -25 0 -3 -88 -6 -195
-6 -107 0 -195 2 -195 5 0 3 6 14 12 25 12 19 24 20 185 20 160 0 173 -1 183
-19z m58 -106 l12 -25 -255 0 -255 0 12 25 11 25 232 0 232 0 11 -25z m56 -91
c3 -9 6 -20 6 -25 0 -5 -126 -9 -305 -9 -244 0 -305 3 -305 13 0 35 20 37 311
37 252 0 288 -2 293 -16z m56 -104 c11 -20 8 -20 -355 -20 -363 0 -366 0 -355
20 10 19 21 20 355 20 334 0 345 -1 355 -20z m60 -99 c5 -11 10 -22 10 -25 0
-6 -820 -5 -837 2 -9 3 -10 9 -2 23 9 18 27 19 414 19 389 0 405 -1 415 -19z
m54 -96 c3 -8 6 -17 6 -20 0 -6 -941 -8 -947 -2 -2 2 -1 12 3 21 6 14 49 16
469 16 404 0 464 -2 469 -15z m57 -97 c5 -7 9 -16 9 -20 0 -5 -241 -8 -535 -8
-300 0 -535 4 -535 9 0 14 23 29 50 33 14 1 245 2 514 1 389 -2 491 -5 497
-15z m59 -103 c7 -9 11 -18 8 -20 -3 -3 -272 -4 -599 -3 l-594 3 20 20 c20 20
32 20 586 17 491 -2 568 -4 579 -17z m34 -81 c9 -4 21 -15 27 -25 9 -19 -7
-19 -646 -19 -652 0 -656 0 -645 20 10 19 23 20 623 23 337 1 615 3 619 5 3 1
14 -1 22 -4z m80 -119 l16 -25 -715 0 -715 0 16 25 16 25 683 0 683 0 16 -25z
m56 -94 c5 -11 10 -22 10 -25 0 -3 -344 -6 -765 -6 -421 0 -765 3 -765 6 0 3
5 14 10 25 10 19 29 19 755 19 726 0 745 0 755 -19z m60 -101 c11 -20 8 -20
-810 -20 -818 0 -821 0 -810 20 11 20 21 20 810 20 789 0 799 0 810 -20z"/>
</g>
</svg>
